<svg width="100" height="100" viewBox="0 0 100 100" fill="none" xmlns="http://www.w3.org/2000/svg">
<path d="M43.3264 52.5623C42.9132 52.5623 42.5668 52.4226 42.2873 52.1431C42.0078 51.8636 41.868 51.5172 41.868 51.104C41.868 50.6908 42.0078 50.3445 42.2873 50.0649C42.5668 49.7854 42.9132 49.6457 43.3264 49.6457C43.7396 49.6457 44.0859 49.7854 44.3654 50.0649C44.6449 50.3445 44.7847 50.6908 44.7847 51.104C44.7847 51.5172 44.6449 51.8636 44.3654 52.1431C44.0859 52.4226 43.7396 52.5623 43.3264 52.5623ZM49.5729 52.5623C49.1597 52.5623 48.8134 52.4226 48.5339 52.1431C48.2543 51.8636 48.1146 51.5172 48.1146 51.104C48.1146 50.6908 48.2543 50.3445 48.5339 50.0649C48.8134 49.7854 49.1597 49.6457 49.5729 49.6457C49.9861 49.6457 50.3325 49.7854 50.612 50.0649C50.8915 50.3445 51.0312 50.6908 51.0312 51.104C51.0312 51.5172 50.8915 51.8636 50.612 52.1431C50.3325 52.4226 49.9861 52.5623 49.5729 52.5623ZM55.6493 52.5623C55.2361 52.5623 54.8898 52.4226 54.6103 52.1431C54.3307 51.8636 54.191 51.5172 54.191 51.104C54.191 50.6908 54.3307 50.3445 54.6103 50.0649C54.8898 49.7854 55.2361 49.6457 55.6493 49.6457C56.0625 49.6457 56.4089 49.7854 56.6884 50.0649C56.9679 50.3445 57.1077 50.6908 57.1077 51.104C57.1077 51.5172 56.9679 51.8636 56.6884 52.1431C56.4089 52.4226 56.0625 52.5623 55.6493 52.5623ZM38.8055 64.0832C38.1493 64.0832 37.5801 63.8421 37.0981 63.3601C36.616 62.878 36.375 62.3089 36.375 61.6526V39.7776C36.375 39.1214 36.616 38.5522 37.0981 38.0701C37.5801 37.5881 38.1493 37.347 38.8055 37.347H40.8715V34.9165H43.4236V37.347H55.5764V34.9165H58.1285V37.347H60.1945C60.8507 37.347 61.4199 37.5881 61.9019 38.0701C62.384 38.5522 62.625 39.1214 62.625 39.7776V61.6526C62.625 62.3089 62.384 62.878 61.9019 63.3601C61.4199 63.8421 60.8507 64.0832 60.1945 64.0832H38.8055ZM38.8055 61.6526H60.1945V46.3401H38.8055V61.6526ZM38.8055 43.9096H60.1945V39.7776H38.8055V43.9096Z" fill="#222222"/>
</svg>
