<svg width="100" height="100" viewBox="0 0 100 100" fill="none" xmlns="http://www.w3.org/2000/svg">
<path d="M37.3472 59.7082C36.691 59.7082 36.1218 59.4671 35.6397 58.9851C35.1577 58.503 34.9167 57.9339 34.9167 57.2776V41.722C34.9167 41.0658 35.1577 40.4966 35.6397 40.0146C36.1218 39.5325 36.691 39.2915 37.3472 39.2915H61.6528C62.3091 39.2915 62.8782 39.5325 63.3603 40.0146C63.8423 40.4966 64.0833 41.0658 64.0833 41.722V57.2776C64.0833 57.9339 63.8423 58.503 63.3603 58.9851C62.8782 59.4671 62.3091 59.7082 61.6528 59.7082H37.3472ZM37.3472 57.2776H61.6528V41.722H37.3472V57.2776ZM54.1181 55.5762H59.9514V49.7429H58.007V53.6318H54.1181V55.5762ZM49.5014 53.7533C50.6834 53.7533 51.6875 53.3396 52.5139 52.5123C53.3403 51.6849 53.7535 50.6803 53.7535 49.4984C53.7535 48.3165 53.3398 47.3123 52.5124 46.4859C51.6851 45.6595 50.6805 45.2464 49.4986 45.2464C48.3167 45.2464 47.3125 45.66 46.4861 46.4874C45.6597 47.3147 45.2465 48.3194 45.2465 49.5013C45.2465 50.6832 45.6602 51.6873 46.4876 52.5137C47.3149 53.3401 48.3195 53.7533 49.5014 53.7533ZM39.0486 49.3783H40.993V45.4894H44.8819V43.545H39.0486V49.3783Z" fill="#222222"/>
</svg>
