<svg width="100" height="100" viewBox="0 0 100 100" fill="none" xmlns="http://www.w3.org/2000/svg">
<path d="M33.4097 61.1664V57.5206C33.4097 56.678 33.6264 55.9104 34.0599 55.2177C34.4933 54.525 35.0868 54.0044 35.8403 53.656C37.5255 52.8864 39.1013 52.3253 40.5677 51.9729C42.0341 51.6205 43.537 51.4442 45.0764 51.4442C46.6157 51.4442 48.1146 51.6205 49.5729 51.9729C51.0312 52.3253 52.603 52.8864 54.2882 53.656C55.0416 54.0044 55.6392 54.525 56.0807 55.2177C56.5223 55.9104 56.7431 56.678 56.7431 57.5206V61.1664H33.4097ZM59.1736 61.1664V57.4234C59.1736 56.0461 58.8151 54.8652 58.0981 53.8809C57.3811 52.8965 56.419 52.0843 55.2118 51.4442C56.743 51.6225 58.1852 51.8959 59.5382 52.2646C60.8912 52.6332 62.0336 53.0646 62.9653 53.5588C63.7916 54.0287 64.4357 54.5898 64.8976 55.242C65.3594 55.8942 65.5903 56.6213 65.5903 57.4234V61.1664H59.1736ZM45.0764 49.4755C43.4722 49.4755 42.1395 48.9448 41.0781 47.8835C40.0168 46.8221 39.4861 45.4894 39.4861 43.8852C39.4861 42.281 40.0168 40.9483 41.0781 39.8869C42.1395 38.8256 43.4722 38.2949 45.0764 38.2949C46.6806 38.2949 48.0133 38.8256 49.0746 39.8869C50.136 40.9483 50.6667 42.281 50.6667 43.8852C50.6667 45.4894 50.136 46.8221 49.0746 47.8835C48.0133 48.9448 46.6806 49.4755 45.0764 49.4755ZM58.6875 43.8852C58.6875 45.4894 58.1568 46.8221 57.0955 47.8835C56.0341 48.9448 54.7014 49.4755 53.0972 49.4755C52.8298 49.4755 52.5179 49.4532 52.1614 49.4086C51.805 49.3641 51.493 49.2972 51.2257 49.2081C51.8333 48.5438 52.2971 47.7579 52.6171 46.8505C52.9372 45.9431 53.0972 44.9546 53.0972 43.8852C53.0972 42.8157 52.9372 41.8435 52.6171 40.9685C52.2971 40.0935 51.8333 39.2914 51.2257 38.5623C51.5173 38.4732 51.8293 38.4063 52.1614 38.3618C52.4936 38.3172 52.8055 38.2949 53.0972 38.2949C54.7014 38.2949 56.0341 38.8256 57.0955 39.8869C58.1568 40.9483 58.6875 42.281 58.6875 43.8852ZM35.8403 58.7359H54.3125V57.5206C54.3125 57.1722 54.2133 56.8401 54.0148 56.5241C53.8163 56.2081 53.5671 55.9813 53.2673 55.8435C51.6632 55.1063 50.2413 54.5938 49.0017 54.3062C47.7621 54.0186 46.4537 53.8748 45.0764 53.8748C43.6991 53.8748 42.3866 54.0186 41.1389 54.3062C39.8912 54.5938 38.4653 55.1063 36.8611 55.8435C36.5613 55.9813 36.3162 56.2081 36.1258 56.5241C35.9355 56.8401 35.8403 57.1722 35.8403 57.5206V58.7359ZM45.0764 47.0449C45.9757 47.0449 46.7271 46.7431 47.3307 46.1396C47.9343 45.5359 48.2361 44.7845 48.2361 43.8852C48.2361 42.9859 47.9343 42.2344 47.3307 41.6309C46.7271 41.0273 45.9757 40.7255 45.0764 40.7255C44.1771 40.7255 43.4256 41.0273 42.822 41.6309C42.2185 42.2344 41.9167 42.9859 41.9167 43.8852C41.9167 44.7845 42.2185 45.5359 42.822 46.1396C43.4256 46.7431 44.1771 47.0449 45.0764 47.0449Z" fill="#222222"/>
</svg>
