<svg width="600" height="585" viewBox="0 0 600 585" fill="none" xmlns="http://www.w3.org/2000/svg">
<path d="M453.581 264.576C434.072 264.576 418.177 280.429 418.177 299.98C418.177 319.531 434.03 335.384 453.581 335.384H564.638C584.147 335.384 600 319.531 600 299.98C600 280.429 584.147 264.576 564.638 264.576H453.581Z" fill="#F3F4F9"/>
<path d="M137.876 87.852C124.063 74.0389 101.664 74.0389 87.8513 87.852C74.0382 101.708 74.0382 124.064 87.8513 137.919C99.6244 149.692 154.579 204.605 166.395 216.42C180.208 230.234 202.607 230.234 216.42 216.42C230.233 202.565 230.233 180.166 216.42 166.396C204.052 153.985 150.287 100.263 137.876 87.852Z" fill="#F3F4F9"/>
<path d="M335.383 35.3616C335.383 15.8107 319.53 0 300.064 0C280.598 0 264.66 15.8107 264.66 35.3616V146.419C264.66 165.97 280.47 181.781 300.021 181.781C319.572 181.781 335.383 165.928 335.383 146.419V35.3616Z" fill="#F3F4F9"/>
<path d="M512.149 137.877C526.004 124.064 526.004 101.665 512.149 87.852C498.336 74.0389 475.937 74.0389 462.081 87.852C450.266 99.6676 395.353 154.623 383.538 166.396C369.725 180.166 369.725 202.607 383.538 216.42C397.351 230.234 419.749 230.234 433.563 216.42C445.973 204.052 499.738 150.245 512.106 137.877H512.149Z" fill="#F3F4F9"/>
<path d="M335.383 584.106V356.04H264.66V498.039C187.689 483.121 129.291 416.266 127.421 335.384H146.462C165.97 335.384 181.866 319.531 181.866 299.98C181.866 280.429 166.013 264.576 146.462 264.576H35.4041C15.8532 264.576 0 280.429 0 299.98C0 319.531 15.8532 335.384 35.4041 335.384H66.3456C68.3007 449.97 153.815 544.197 264.66 559.752V584.106H335.383Z" fill="#F3F4F9"/>
<path d="M264.617 356.04H213.53V375.718H264.617V356.04Z" fill="#F3F4F9"/>
</svg>
